<svg xmlns="http://www.w3.org/2000/svg" width="27.023" height="26.041" viewBox="0 0 27.023 26.041">
  <g id="Group_274" data-name="Group 274" transform="translate(1558.511 -4301.799)">
    <g id="Group_191" data-name="Group 191" transform="translate(-1051.424 4229.065)">
      <path id="Path_313" data-name="Path 313" d="M-493.625,93.016h-10.562a2.607,2.607,0,0,1-2.9-2.86q0-7.3,0-14.6a2.584,2.584,0,0,1,2.826-2.8c7.083,0,14.166.024,21.249-.02a2.858,2.858,0,0,1,2.946,2.937c-.073,4.824-.065,9.651,0,14.476a2.811,2.811,0,0,1-2.872,2.882C-486.5,92.99-490.063,93.016-493.625,93.016Zm.038-4.5q4.848,0,9.7,0c1.4,0,2.078-.658,2.08-2.033q.009-5.034,0-10.069a1.8,1.8,0,0,0-2.036-2.014q-9.758,0-19.515,0a1.841,1.841,0,0,0-2.094,2.094q0,4.91,0,9.82c0,1.566.646,2.2,2.235,2.2Z" transform="translate(0 0)" fill="#fff"/>
      <path id="Path_314" data-name="Path 314" d="M-442.442,247.071h7.813c0,.715.016,1.413-.007,2.109a.679.679,0,0,0,.415.734,9.534,9.534,0,0,1,1.049.656c.357.236.3.479-.049.639a2.086,2.086,0,0,1-.819.218q-4.686.023-9.372-.006a.945.945,0,0,1-.728-.365c-.19-.39.167-.591.494-.695a1.556,1.556,0,0,0,1.215-1.974A7.689,7.689,0,0,1-442.442,247.071Z" transform="translate(-55.076 -152.664)" fill="#fff"/>
      <path id="Path_315" data-name="Path 315" d="M-373.841,100.822l-.035.69h-.588l-.056-.7a1.831,1.831,0,0,1-1.591-1.545l.727-.205a5.71,5.71,0,0,0,1.1.772.608.608,0,0,0,.826-.442c.119-.4-.1-.621-.441-.761-.362-.148-.727-.289-1.087-.442a1.462,1.462,0,0,1-.966-1.509,1.573,1.573,0,0,1,1.091-1.5c.2-.075.334-.352.6-.649h.369l.068.579a1.662,1.662,0,0,1,1.4,1.26l-.8.353a3.935,3.935,0,0,0-.559-.623.576.576,0,0,0-.9.188.521.521,0,0,0,.288.808c.361.151.724.3,1.08.458a1.535,1.535,0,0,1,1.085,1.679,1.582,1.582,0,0,1-1.275,1.477C-373.614,100.734-373.71,100.774-373.841,100.822Z" transform="translate(-114.694 -19.081)" fill="#fff"/>
      <path id="Path_316" data-name="Path 316" d="M-413.039,137.779c.414,0,.828.021,1.24-.006.491-.031.69.232.694.662s-.162.717-.657.712c-.868-.009-1.737-.006-2.605,0-.483,0-.658-.268-.657-.706s.2-.687.682-.665C-413.908,137.795-413.473,137.779-413.039,137.779Z" transform="translate(-80.619 -56.952)" fill="#fff"/>
      <path id="Path_317" data-name="Path 317" d="M-413.063,181.358c-.455,0-.909-.005-1.364,0-.436.006-.574-.259-.585-.632-.011-.39.1-.717.564-.722.93-.011,1.86-.007,2.79,0,.437,0,.562.32.561.67,0,.374-.115.7-.6.687C-412.154,181.348-412.609,181.358-413.063,181.358Z" transform="translate(-80.628 -93.929)" fill="#fff"/>
      <path id="Path_318" data-name="Path 318" d="M-374.626,181.348c-.414,0-.829-.023-1.24.006a.587.587,0,0,1-.7-.662c0-.4.161-.715.663-.706.868.015,1.737.011,2.605,0,.488-.005.661.266.659.7s-.205.687-.686.664C-373.756,181.332-374.191,181.348-374.626,181.348Z" transform="translate(-114.297 -93.919)" fill="#fff"/>
      <path id="Path_319" data-name="Path 319" d="M-450.119,160.208c-.414,0-.829-.014-1.243,0-.483.021-.682-.228-.686-.673s.153-.712.651-.7c.87.013,1.74.017,2.61,0,.506-.011.671.3.667.7s-.2.7-.7.676C-449.248,160.188-449.684,160.208-450.119,160.208Z" transform="translate(-48.197 -75.395)" fill="#fff"/>
      <path id="Path_320" data-name="Path 320" d="M-413.1,160.246c-.435,0-.87,0-1.3,0-.465.006-.611-.274-.613-.677s.12-.7.592-.694q1.366,0,2.733,0c.476,0,.6.329.591.706s-.162.681-.633.667C-412.189,160.236-412.645,160.246-413.1,160.246Z" transform="translate(-80.624 -75.433)" fill="#fff"/>
      <path id="Path_321" data-name="Path 321" d="M-413.065,116.748c.454,0,.908.014,1.361,0s.578.263.592.622c.015.381-.1.721-.562.728-.928.014-1.856.019-2.783,0-.447-.01-.581-.328-.566-.726.014-.381.17-.627.6-.619C-413.972,116.754-413.518,116.748-413.065,116.748Z" transform="translate(-80.618 -38.539)" fill="#fff"/>
      <path id="Path_322" data-name="Path 322" d="M-450.109,181.379c-.434,0-.869-.009-1.3,0-.467.012-.617-.26-.62-.664s.13-.695.595-.7c.91,0,1.82,0,2.73,0,.477,0,.6.336.6.7s-.157.681-.635.66C-449.2,181.363-449.654,181.379-450.109,181.379Z" transform="translate(-48.211 -93.95)" fill="#fff"/>
      <path id="Path_323" data-name="Path 323" d="M-374.594,160.209c-.432,0-.866-.018-1.3,0-.5.026-.682-.271-.687-.678s.157-.712.66-.7q1.3.026,2.594,0c.483-.009.672.237.675.676s-.155.715-.648.7C-373.729,160.2-374.161,160.209-374.594,160.209Z" transform="translate(-114.285 -75.397)" fill="#fff"/>
      <path id="Path_324" data-name="Path 324" d="M-413.056,95.274c-.453,0-.907,0-1.36,0-.435.005-.572-.265-.585-.633-.015-.392.115-.715.568-.723q1.391-.026,2.782,0c.462.008.572.356.556.732-.015.36-.163.636-.6.625C-412.149,95.266-412.6,95.275-413.056,95.274Z" transform="translate(-80.637 -18.541)" fill="#fff"/>
      <path id="Path_325" data-name="Path 325" d="M-450.081,118.268c-.453,0-.907,0-1.36,0-.438,0-.56-.282-.572-.646s.105-.692.52-.7c.947-.027,1.9-.019,2.843,0,.431.006.543.33.54.684s-.1.665-.55.669C-449.133,118.271-449.607,118.268-450.081,118.268Z" transform="translate(-48.227 -38.677)" fill="#fff"/>
      <path id="Path_326" data-name="Path 326" d="M-450.039,139.193c-.456,0-.912,0-1.367,0s-.606-.3-.6-.7.165-.664.631-.657c.891.014,1.782.012,2.672,0,.441-.005.585.259.6.628s-.094.714-.566.725C-449.127,139.2-449.583,139.193-450.039,139.193Z" transform="translate(-48.233 -57.009)" fill="#fff"/>
    </g>
  </g>
</svg>
