<svg id="Layer_1" data-name="Layer 1" xmlns="http://www.w3.org/2000/svg" viewBox="0 0 49 34"><defs><style>.cls-1{fill:#fff;}</style></defs><title>Project management</title><path class="cls-1" d="M33.41,26.93c0,.07,0,.12,0,.17v4.15c0,.48-.19.67-.66.67h-19a.53.53,0,0,1-.59-.38.86.86,0,0,1,0-.23V7.62a.54.54,0,0,1,.59-.6h4.12a1.15,1.15,0,0,0,0-.18V5a.55.55,0,0,1,.63-.62h1.81V2.52a.53.53,0,0,1,.58-.58h4.76a.54.54,0,0,1,.59.58V4.37h1.89a.51.51,0,0,1,.53.55c0,.62,0,1.23,0,1.85V7h4.07c.47,0,.66.19.66.66v4.14a1.1,1.1,0,0,0,0,.16l.81-.92.45-.51a.58.58,0,0,1,.64-.19,10,10,0,0,1,2.24.93.61.61,0,0,1,.35.62c0,.58-.07,1.16-.11,1.73a.3.3,0,0,0,.11.28c.19.17.36.36.55.53a.4.4,0,0,0,.23.1l1.76-.11a.56.56,0,0,1,.58.3,9.24,9.24,0,0,1,1,2.32.59.59,0,0,1-.19.61c-.45.38-.89.77-1.33,1.16a.23.23,0,0,0-.1.23,6.77,6.77,0,0,1,0,.78.36.36,0,0,0,.14.32c.42.37.83.75,1.27,1.1a.67.67,0,0,1,.16.8A9.84,9.84,0,0,1,41,24.2a.58.58,0,0,1-.55.3c-.61,0-1.21-.08-1.81-.1a.26.26,0,0,0-.2.08,7.8,7.8,0,0,0-.58.57.39.39,0,0,0-.09.22c0,.58.06,1.16.11,1.74a.64.64,0,0,1-.37.65,7.4,7.4,0,0,1-2.27.93.58.58,0,0,1-.62-.21L33.5,27A.38.38,0,0,0,33.41,26.93Zm-16.92-10h7.15a.2.2,0,0,0,.22-.16,8.71,8.71,0,0,1,.84-2,.58.58,0,0,1,.61-.33l1.78.11a.32.32,0,0,0,.14,0l.66-.7H16.49V12.78h11.4c0-.31,0-.6-.05-.89a.59.59,0,0,1,.32-.59,11.54,11.54,0,0,1,2.11-.9.74.74,0,0,1,.9.27c.24.29.48.58.74.86s.29.25.41.37V8.09H28.8c-.12,0-.14.05-.14.15,0,.52,0,1,0,1.56a.54.54,0,0,1-.62.62h-9.6a.54.54,0,0,1-.58-.57V8.09H14.22V30.86H32.33V27c-.12,0-.21-.06-.31.05-.34.44-.7.86-1.05,1.29a.57.57,0,0,1-.76.22,12.17,12.17,0,0,1-2-.88.64.64,0,0,1-.38-.69c0-.26,0-.53.05-.82H16.49V25.1H27.9c-.22-.22-.42-.41-.6-.61a.26.26,0,0,0-.25-.1l-1.79.11a.55.55,0,0,1-.54-.3,9.32,9.32,0,0,1-.87-2c0-.12-.08-.15-.2-.15H16.49V21h7.59a.48.48,0,0,0,.3-.11c.31-.25.6-.51.89-.78a.3.3,0,0,0,.1-.21q0-.42,0-.84a.4.4,0,0,0-.09-.21c-.29-.27-.59-.53-.89-.79a.51.51,0,0,0-.29-.1H16.49Zm9.33-1.36h0a.46.46,0,0,0-.2,0c-.06,0-.15,0-.17.09-.19.43-.36.87-.55,1.31a.16.16,0,0,0,.06.21l1.25,1.1a.66.66,0,0,1,.25.58c0,.43,0,.87,0,1.3a.64.64,0,0,1-.23.55c-.43.37-.84.75-1.26,1.12a.18.18,0,0,0-.06.24c.17.41.35.82.51,1.24a.21.21,0,0,0,.25.14l1.69-.1a.59.59,0,0,1,.52.23,11.9,11.9,0,0,0,.87.87.75.75,0,0,1,.28.68c-.05.54-.07,1.08-.11,1.61,0,.1,0,.16.11.2.37.16.73.32,1.08.49.16.08.25,0,.35-.1.32-.41.66-.8,1-1.21a.58.58,0,0,1,.6-.22l.18,0c.41,0,.82,0,1.23,0a.75.75,0,0,1,.74.3c.32.42.67.82,1,1.22a.16.16,0,0,0,.22.06l1.26-.53c.11,0,.14-.11.13-.24,0-.58-.07-1.16-.11-1.74a.57.57,0,0,1,.22-.47c.31-.3.63-.6.92-.92a.63.63,0,0,1,.55-.24l1.69.1c.12,0,.18,0,.22-.13l.52-1.21a.21.21,0,0,0-.07-.3L39.5,20.68a.66.66,0,0,1-.23-.56c0-.43,0-.86,0-1.29a.66.66,0,0,1,.25-.6c.42-.35.82-.72,1.23-1.07a.19.19,0,0,0,.07-.24c-.19-.43-.36-.87-.55-1.31a.25.25,0,0,0-.17-.08l-1.69.1a.66.66,0,0,1-.58-.25,9.74,9.74,0,0,0-.85-.85.75.75,0,0,1-.29-.66c0-.54.07-1.09.11-1.63a.17.17,0,0,0-.12-.21l-1.26-.52a.19.19,0,0,0-.25.06c-.36.42-.74.83-1.1,1.25a.68.68,0,0,1-.6.24c-.4,0-.81,0-1.22,0a.75.75,0,0,1-.64-.26c-.34-.4-.7-.79-1-1.19a.27.27,0,0,0-.36-.09L29,12a.17.17,0,0,0-.11.2c0,.55.06,1.1.11,1.65a.7.7,0,0,1-.27.62,9.74,9.74,0,0,0-.85.85.72.72,0,0,1-.65.27ZM27.6,9.35V5.43H25.77a.54.54,0,0,1-.6-.61V3h-3.8V4.85a.53.53,0,0,1-.58.58H19.15c-.16,0-.22,0-.22.21,0,1.07,0,2.13,0,3.2v.52Z"/><path class="cls-1" d="M32.86,23.64A4.17,4.17,0,1,1,37,19.55,4.18,4.18,0,0,1,32.86,23.64Zm-.53-7.22a3.08,3.08,0,0,0-2.57,3.2,3,3,0,0,0,2.57,2.88Zm1.07,6.09a3.08,3.08,0,0,0,0-6.08Z"/></svg>