<svg xmlns="http://www.w3.org/2000/svg" width="30.598" height="30.649" viewBox="0 0 30.598 30.649">
  <g id="Group_266" data-name="Group 266" transform="translate(2182 -4505.678)">
    <g id="Group_193" data-name="Group 193" transform="translate(-1383.478 4720.638)">
      <path id="Path_334" data-name="Path 334" d="M-231.744-46.624c0,.162,0,.263,0,.365q.009,11.686.017,23.372a.52.52,0,0,1-.471.472q-2.267,0-4.533-.009a4.016,4.016,0,0,1-.629-.04c-.277-.045-.319-.136-.319-.358q.007-8.846,0-17.692a.472.472,0,0,1,.159-.365q2.793-2.779,5.579-5.564C-231.893-46.492-231.841-46.536-231.744-46.624Z" transform="translate(-539.385 -161.896)" fill="#fff"/>
      <path id="Path_335" data-name="Path 335" d="M-783.5-206.293c-.476.481-.94.955-1.409,1.422q-5.277,5.259-10.557,10.515c-.384.382-.792.74-1.182,1.116a.227.227,0,0,1-.362.009q-.718-.712-1.43-1.43c-.12-.121-.111-.233.012-.359.885-.909,1.753-1.835,2.649-2.732q5.42-5.427,10.855-10.838c.388-.387.794-.757,1.2-1.126.222-.2.281-.21.5,0q.929.868,1.836,1.76c.732.719,1.454,1.449,2.18,2.175.04.04.082.076.114.106l6.2-6.21a.753.753,0,0,1-.2-.112c-.335-.34-.67-.682-.99-1.036-.149-.165-.131-.228.084-.293.7-.214,1.4-.422,2.108-.616,1.222-.335,2.447-.658,3.672-.984.269-.072.326-.024.261.256-.153.664-.309,1.327-.484,1.985q-.5,1.892-1.029,3.778c-.087.315-.135.326-.386.1s-.5-.468-.75-.709c-.136-.133-.261-.279-.428-.459-.169.186-.307.352-.459.5q-3.488,3.464-6.98,6.923c-.136.135-.29.252-.418.392s-.255.133-.394,0c-.59-.573-1.191-1.134-1.777-1.711-.777-.764-1.545-1.538-2.317-2.308C-783.4-206.207-783.436-206.237-783.5-206.293Z" fill="#fff"/>
      <path id="Path_336" data-name="Path 336" d="M-473.845,45.041c.525.529,1.035,1.045,1.547,1.56s1.031,1.024,1.538,1.545a.472.472,0,0,1,.124.3q.048,8.386.084,16.772a.522.522,0,0,1-.515.527h-5.01a.506.506,0,0,1-.5-.5q0-8.654,0-17.307a.442.442,0,0,1,.108-.284c.833-.844,1.673-1.68,2.512-2.518C-473.93,45.108-473.9,45.087-473.845,45.041Z" transform="translate(-309.623 -250.054)" fill="#fff"/>
      <path id="Path_337" data-name="Path 337" d="M-708.021,199.2c0,.111,0,.179,0,.246q.015,7.049.03,14.1c0,.3-.082.405-.389.419-.566.025-1.134.034-1.7.037-1.122.005-2.245,0-3.367,0a.51.51,0,0,1-.5-.5q0-4.1,0-8.206a.429.429,0,0,1,.138-.334q2.818-2.809,5.629-5.623C-708.141,199.3-708.1,199.266-708.021,199.2Z" transform="translate(-81.34 -398.318)" fill="#fff"/>
    </g>
  </g>
</svg>
