<svg xmlns="http://www.w3.org/2000/svg" width="31.771" height="35.347" viewBox="0 0 31.771 35.347">
  <g id="Group_278" data-name="Group 278" transform="translate(1882.885 -4086.653)">
    <g id="Group_186" data-name="Group 186" transform="translate(-1218.22 4206.989)">
      <path id="Path_289" data-name="Path 289" d="M-664.665-115.111l3.092-1.026q6.283-2.085,12.568-4.165a.776.776,0,0,1,.456,0q7.644,2.525,15.282,5.066c.1.034.2.073.372.137-.357.119-.641.222-.931.307a.31.31,0,0,0-.263.354c.01,2.042,0,4.084.013,6.126a.666.666,0,0,0,.177.409c.259.275.547.521.816.771l-.825.812-.69-.8-.76.848-.8-.875c.235-.223.534-.493.816-.782a.536.536,0,0,0,.156-.329c.009-1.952.007-3.9.006-5.857a1.92,1.92,0,0,0-.029-.213l-1.709.567c-.547.182-1.091.376-1.644.54a.394.394,0,0,0-.336.453c.01,2.58-.006,5.16.011,7.74a.86.86,0,0,1-.651.969,15.866,15.866,0,0,1-2.323.508,74.341,74.341,0,0,1-11.161.209c-1.44-.068-2.877-.216-4.311-.369a6.262,6.262,0,0,1-1.348-.355.84.84,0,0,1-.586-.9c.015-2.65,0-5.3.018-7.949a.468.468,0,0,0-.4-.535c-1.6-.513-3.192-1.045-4.787-1.571C-664.487-115.032-664.54-115.059-664.665-115.111Zm6.5,2.183v.409q0,3.466,0,6.932c0,.638-.006.679.616.746,1.493.16,2.988.328,4.486.4a84.1,84.1,0,0,0,9.287-.06c1.149-.07,2.29-.262,3.435-.4.24-.029.345-.134.344-.409-.012-2.37-.006-4.741-.006-7.111,0-.094-.011-.188-.018-.3-.165.05-.3.086-.428.129q-4.044,1.346-8.089,2.689a.73.73,0,0,1-.427.017c-2.36-.776-4.717-1.564-7.075-2.347C-656.725-112.461-657.414-112.683-658.161-112.928Zm21.76-2.173c-.172-.063-.27-.1-.371-.134q-5.857-1.944-11.717-3.879a1.071,1.071,0,0,0-.625.016q-5.34,1.751-10.673,3.526c-.437.145-.872.3-1.365.464.129.052.192.081.257.1q5.956,1.979,11.914,3.951a.73.73,0,0,0,.428-.007q4.983-1.644,9.96-3.3C-637.887-114.6-637.183-114.838-636.4-115.1Z" fill="#fff"/>
      <path id="Path_290" data-name="Path 290" d="M-588.627,182.7c.584-.591,1.161-1.166,1.722-1.757a.327.327,0,0,0-.021-.3q-.664-1.011-1.355-2a.279.279,0,0,1-.011-.368,8.932,8.932,0,0,0,1.2-2.876.306.306,0,0,1,.29-.273c.851-.153,1.7-.321,2.582-.49v-.87c0-.5-.01-1,0-1.494.006-.2-.072-.276-.262-.31-.764-.136-1.524-.291-2.288-.426a.352.352,0,0,1-.331-.309,10.762,10.762,0,0,0-.376-1.225c-.146-.389-.335-.761-.518-1.17l.995-.552c.26.664.524,1.294.748,1.939a.473.473,0,0,0,.416.372c.813.142,1.622.311,2.434.456.2.036.28.1.278.324q-.017,1.957,0,3.915c0,.218-.075.289-.277.325-.842.149-1.683.309-2.52.482a.46.46,0,0,0-.281.236c-.276.627-.521,1.267-.8,1.893a.356.356,0,0,0,.032.4c.491.714.972,1.434,1.457,2.151.072.107.156.192.018.33-1,1-1.994,2-3.008,3.026l-1.48-1c-.289-.195-.583-.382-.863-.59a.392.392,0,0,0-.457-.033c-.607.27-1.223.52-1.845.756a.39.39,0,0,0-.275.34c-.149.8-.305,1.6-.461,2.4-.021.107-.049.213-.079.343-.1.005-.194.015-.29.015-1.285,0-2.57,0-3.855,0-.214,0-.309-.045-.348-.282-.139-.844-.3-1.684-.479-2.521a.506.506,0,0,0-.269-.3c-.608-.267-1.232-.5-1.839-.77a.406.406,0,0,0-.458.043c-.761.526-1.528,1.041-2.283,1.552l-3.146-3.165c.493-.731,1-1.493,1.52-2.242a.478.478,0,0,0,.03-.559c-.266-.576-.5-1.169-.724-1.762a.4.4,0,0,0-.347-.3c-.843-.146-1.68-.322-2.522-.473-.19-.034-.239-.115-.238-.295.007-1.315.009-2.63,0-3.945,0-.2.071-.272.261-.306.8-.146,1.6-.321,2.4-.455a.53.53,0,0,0,.484-.422c.171-.527.39-1.038.605-1.6l1,.519c-.133.32-.273.614-.379.92-.139.4-.26.814-.371,1.226a.345.345,0,0,1-.312.294c-.764.132-1.526.282-2.288.427-.087.017-.172.044-.275.071v2.6c.871.167,1.729.336,2.59.49a.288.288,0,0,1,.277.251,8.92,8.92,0,0,0,1.2,2.908.289.289,0,0,1-.027.371c-.444.649-.873,1.309-1.327,1.951-.135.191-.108.29.049.443.549.534,1.083,1.084,1.64,1.646.546-.367,1.072-.721,1.6-1.074.256-.171.508-.461.773-.474s.529.279.812.392c.718.287,1.442.563,2.173.813.221.075.343.155.384.4.134.784.294,1.564.445,2.346.009.047.025.093.043.164.82,0,1.636,0,2.452-.009.066,0,.171-.125.187-.207.156-.77.305-1.542.438-2.316.035-.2.1-.314.313-.36a8.83,8.83,0,0,0,2.827-1.164.328.328,0,0,1,.423.015C-590.1,181.717-589.377,182.2-588.627,182.7Z" transform="translate(-52.145 -271.366)" fill="#fff"/>
      <path id="Path_291" data-name="Path 291" d="M-469.511,175.948l.373,1.011a3.834,3.834,0,0,0-2.247,2.2,3.672,3.672,0,0,0-.1,2.458,3.8,3.8,0,0,0,3.666,2.715,3.774,3.774,0,0,0,3.626-2.842,3.682,3.682,0,0,0-.333-2.748,3.821,3.821,0,0,0-2.1-1.8l.332-.993a4.78,4.78,0,0,1,3.323,4.62,4.89,4.89,0,0,1-4.491,4.848,4.9,4.9,0,0,1-5.221-3.983A4.934,4.934,0,0,1-469.511,175.948Z" transform="translate(-180.431 -278.573)" fill="#fff"/>
    </g>
  </g>
</svg>
