<svg xmlns="http://www.w3.org/2000/svg" width="29.333" height="29.758" viewBox="0 0 29.333 29.758">
  <g id="Group_276" data-name="Group 276" transform="translate(1239.667 -4088.121)">
    <g id="Group_188" data-name="Group 188" transform="translate(-578.533 4228.884)">
      <path id="Path_296" data-name="Path 296" d="M-634.912-125.57c-.689,0-1.378,0-2.068,0-.99,0-1.024-.042-1.071-1.018a7.956,7.956,0,0,0-2.874-5.934,8.051,8.051,0,0,0-8.936-1.351,8.218,8.218,0,0,0-5.087,7.491c-.049.736-.1.812-.828.813q-2.275,0-4.549,0c-.7,0-.8-.1-.8-.777,0-.61.021-1.222-.007-1.831a.639.639,0,0,1,.629-.754c.6-.094,1.2-.217,1.8-.3a.713.713,0,0,0,.652-.544c.261-.739.615-1.444.895-2.177a.811.811,0,0,0-.025-.616c-.346-.594-.737-1.163-1.124-1.732a.576.576,0,0,1,.089-.836q1.456-1.426,2.9-2.867a.56.56,0,0,1,.835-.031c.54.4,1.072.8,1.638,1.159a.865.865,0,0,0,.661.057c.739-.262,1.447-.616,2.194-.852a.693.693,0,0,0,.554-.643c.1-.622.23-1.238.321-1.861a.587.587,0,0,1,.666-.581c1.359.008,2.717.011,4.076,0a.635.635,0,0,1,.706.623c.106.64.2,1.285.354,1.913a.88.88,0,0,0,.441.5c.709.335,1.455.593,2.159.938a.665.665,0,0,0,.8-.066c.49-.362,1.014-.679,1.506-1.04a.676.676,0,0,1,1.029.081q1.349,1.407,2.74,2.773a.66.66,0,0,1,.074,1.022c-.376.48-.7,1-1.077,1.479a.654.654,0,0,0-.085.789c.342.726.6,1.494.922,2.229a.8.8,0,0,0,.45.418c.666.17,1.345.29,2.023.411a.547.547,0,0,1,.533.633c-.021.61-.02,1.221,0,1.831.016.5-.237.661-.689.656-.807-.008-1.615,0-2.422,0Z" fill="#fff"/>
      <path id="Path_297" data-name="Path 297" d="M-585.183,30.6a2.986,2.986,0,0,0,.5.085c1.28.006,2.56.024,3.839-.013a2.166,2.166,0,0,0,1.041-.312c1.916-1.2,3.81-2.44,5.714-3.663a1.5,1.5,0,0,1,2.265.321,1.785,1.785,0,0,1-.52,2.492q-4.466,2.874-8.944,5.731a3.481,3.481,0,0,1-3.166.345c-.556-.2-1.109-.4-1.664-.6a21.513,21.513,0,0,0-2.169-.759,22.573,22.573,0,0,0-2.342-.322v-.5c0-2.323.014-4.646-.011-6.969-.005-.491.167-.681.628-.679a19.369,19.369,0,0,1,2.636.041,3.2,3.2,0,0,1,1.563.748,1.846,1.846,0,0,0,1.373.482c1.22-.02,2.441-.013,3.662,0a1.563,1.563,0,0,1,1.69,1.63,1.572,1.572,0,0,1-1.67,1.657c-1.26.015-2.52,0-3.78.009-.206,0-.412.027-.617.041Z" transform="translate(-62.162 -146.822)" fill="#fff"/>
      <path id="Path_298" data-name="Path 298" d="M-579.16-31.117c.3-.6.559-1.088.788-1.586a.73.73,0,0,1,.792-.459,4.311,4.311,0,0,1,4.106,4.168c.024.511,0,1.023.006,1.535.005.43-.177.668-.628.668q-5.018,0-10.037,0c-.409,0-.637-.189-.626-.6a19.245,19.245,0,0,1,.1-2.295,4.168,4.168,0,0,1,3.994-3.447.968.968,0,0,1,.672.4A17.685,17.685,0,0,1-579.16-31.117Z" transform="translate(-67.348 -94.886)" fill="#fff"/>
      <path id="Path_299" data-name="Path 299" d="M-639.411,22.6c0,1.457-.011,2.914.006,4.37.006.52-.171.75-.721.74-1.378-.024-2.756-.018-4.134,0-.479.005-.674-.186-.673-.664q.013-4.4,0-8.8c0-.489.217-.66.683-.655,1.358.013,2.717.02,4.075,0,.558-.01.779.2.771.762C-639.425,19.767-639.411,21.185-639.411,22.6Z" transform="translate(-14.287 -139.639)" fill="#fff"/>
      <path id="Path_300" data-name="Path 300" d="M-555.7-75.509a2.511,2.511,0,0,1-2.513-2.506,2.521,2.521,0,0,1,2.5-2.526,2.52,2.52,0,0,1,2.513,2.514A2.51,2.51,0,0,1-555.7-75.509Z" transform="translate(-90.756 -53.106)" fill="#fff"/>
    </g>
  </g>
</svg>
