<svg id="Layer_1" data-name="Layer 1" xmlns="http://www.w3.org/2000/svg" viewBox="0 0 49 34"><defs><style>.cls-1{fill:#fff;}</style></defs><title>Bank cash</title><path class="cls-1" d="M10.26,31.63V30c.55,0,1.1,0,1.64,0,.17,0,.47-.09.49-.18.13-.65.56-.77,1.15-.7V20.51H11.75v-2H37.83v1.95H36.05v8.66c.57,0,1.05.1,1.16.79,0,.06.26.12.4.12h1.71v1.59Zm6.81-11.11v8.59h2.82V20.52Zm12.61,8.59h2.84V20.54H29.68Zm-3.47-8.54H23.4v8.54h2.81Z"/><path class="cls-1" d="M19,10.61v5.23H30.52V10.58l8.19,6.26H10.94Z"/><path class="cls-1" d="M21,1.41h7.5V14.64H21ZM26,13.4l1.47-1.47c0-2.42,0-5.07,0-7.72a.65.65,0,0,0-.21-.42c-.37-.33-.75-.63-1.28-1.07H23.57L22.22,4.09V11.9c.44.54.74.94,1.07,1.3a.63.63,0,0,0,.43.19C24.54,13.41,25.36,13.4,26,13.4Z"/><path class="cls-1" d="M27,8.06a2.2,2.2,0,1,1-4.4,0,2.2,2.2,0,1,1,4.4,0Z"/></svg>