<svg id="Layer_1" data-name="Layer 1" xmlns="http://www.w3.org/2000/svg" viewBox="0 0 49 34"><defs><style>.cls-1{fill:#fff;}</style></defs><title>Purchase Management</title><path class="cls-1" d="M23.34,3.89c.44,0,.89,0,1.33.06A3.71,3.71,0,0,1,27.88,7.5a1.57,1.57,0,0,0,.06.76c.11.15.44.15.67.21a1.73,1.73,0,0,1-.09,3.35h0c-.58.12-.58.12-.61.73a4,4,0,0,1-3.36,3.73,6.5,6.5,0,0,1-2.81-.1,4.08,4.08,0,0,1-2.87-3.79c0-.48,0-.48-.46-.55a1.72,1.72,0,0,1,0-3.42c.41-.06.44-.08.43-.5a3.72,3.72,0,0,1,1.62-3.38A3.64,3.64,0,0,1,22.5,3.9h.84Zm0,10.3a2.62,2.62,0,0,0,1.8-.67c.15-.12.26-.28.11-.45s-.3-.1-.45,0a2,2,0,0,1-2.8,0c-.16-.12-.31-.21-.46,0s0,.33.11.45A2.58,2.58,0,0,0,23.31,14.19Z"/><path class="cls-1" d="M33.48,27.33h2.6a.34.34,0,0,1,.34.38c0,1.12,0,2.24,0,3.36,0,.4-.28.63-.73.63-.92,0-1.83,0-2.75,0s-1.77,0-2.65,0c-.43,0-.54-.1-.54-.53V25.59c0-.09,0-.2,0-.27a.5.5,0,0,0-.28-.26c-.06,0-.2.15-.24.25a.78.78,0,0,0,0,.34c0,1.83,0,3.66,0,5.49,0,.47-.09.56-.56.56-1.48,0-2.95,0-4.43,0-.46,0-.52-.11-.58-.56a1.62,1.62,0,0,1,.76-1.62,9.83,9.83,0,0,0,3.31-4.87c.42-1.26.86-2.51,1.29-3.77.15-.45.36-.52.74-.24A7.57,7.57,0,0,1,32.9,26c.1,1,0,1.94,0,2.9v1.53c0,.21,0,.4.29.39s.25-.2.25-.39V27.33Z"/><path class="cls-1" d="M42.28,11c0-.33.09-.61.12-.9a1.4,1.4,0,0,1,1.39-1.23,1.43,1.43,0,0,1,1.36,1.3,4.68,4.68,0,0,1,0,.53c0,.21-.16.35-.35.31a.57.57,0,0,1-.33-.3,1,1,0,0,1,0-.4.68.68,0,0,0-1.35-.09c-.27,2.08-.52,4.16-.83,6.24a.86.86,0,0,0,.32.92,1.17,1.17,0,0,1,.34,1.41,1.26,1.26,0,0,1-1.22.81H40.9c-.2,0-.28-.12-.23-.28a.38.38,0,0,1,.24-.24,6.06,6.06,0,0,1,.74,0,.77.77,0,0,0,.78-.51.72.72,0,0,0-.28-.85,6.23,6.23,0,0,0-.71-.56A.72.72,0,0,0,41,17H32.75c-.5,0-.61-.08-.67-.57-.23-1.67-.45-3.34-.67-5,0-.31.09-.45.39-.47H42.28Zm-5.56,1.08-.27,0a.84.84,0,0,0-.84.86,3.23,3.23,0,0,0,0,.44.85.85,0,0,0,.87.89h.93c.28,0,.41.12.41.39V15a.33.33,0,0,1-.38.38c-.18,0-.35,0-.53,0-.66,0-.66,0-.77-.65,0,0,0-.08,0-.09s-.16-.18-.23-.17a.36.36,0,0,0-.25.18,1,1,0,0,0,.76,1.27l.33,0a1.59,1.59,0,0,0,0,.44.46.46,0,0,0,.23.29c.19.05.28-.1.29-.28s0-.3,0-.45l.15,0a.88.88,0,0,0,.94-1v-.37a.85.85,0,0,0-.82-.83h-.81c-.53,0-.59-.06-.59-.59s.06-.52.52-.53H37a1.55,1.55,0,0,1,.69.08c.12.08.08.38.15.56a.41.41,0,0,0,.27.23c.07,0,.21-.13.23-.22a.91.91,0,0,0-.92-1.2l-.18,0a1.46,1.46,0,0,0,0-.47c0-.11-.15-.18-.23-.27-.1.09-.23.16-.27.27A1.9,1.9,0,0,0,36.72,12.05Z"/><path class="cls-1" d="M17.53,28.32V25.48c0-.21,0-.44-.27-.43s-.27.24-.27.44c0,1.75,0,3.51,0,5.27v.53a.38.38,0,0,1-.41.41q-.85,0-1.71,0a.62.62,0,0,1-.64-.64c0-1.79-.07-3.6.07-5.39a7.13,7.13,0,0,1,2.78-5c.31-.25.55-.17.68.22.44,1.3.86,2.6,1.32,3.9A10.46,10.46,0,0,0,22.91,30a.54.54,0,0,1,.17.3c0,.32,0,.64,0,1s-.13.46-.49.46c-.78,0-1.56,0-2.34,0s-1.47,0-2.21,0c-.4,0-.52-.12-.52-.52V28.32Z"/><path class="cls-1" d="M18.27,7.86l-.6.21c-.26.09-.34,0-.34-.25,0-.67,0-1.35,0-2a4.3,4.3,0,0,1,.34-2.13A3.57,3.57,0,0,1,21,1.56c2.13,0,4.26,0,6.39,0,.37,0,.43.09.31.43A2.1,2.1,0,0,1,25.6,3.37c-1,0-2,0-3,0a4.26,4.26,0,0,0-4.33,4.35S18.27,7.8,18.27,7.86Z"/><path class="cls-1" d="M33.49,26.78c0-.92,0-1.79,0-2.66a1.11,1.11,0,0,1,1.18-1L39.83,23a1,1,0,0,0,.51-.16c.55-.35,1.09-.72,1.63-1.09.3-.2.55-.18.72,0a.52.52,0,0,1-.13.75c-.64.54-1.29,1.07-1.94,1.6a.79.79,0,0,1-.31.13c-1.19.26-2.37.53-3.56.78a.38.38,0,0,0-.34.43c0,.3,0,.6,0,.9s-.12.41-.37.42Z"/><path class="cls-1" d="M25,28.17c0-.54,0-1.08,0-1.62a1.92,1.92,0,0,0-.73-1.83A1.76,1.76,0,0,0,25,23.14l.43.42c.32.34.47.31.65-.14.44-1.14.88-2.29,1.33-3.43.15-.4.3-.46.69-.3a1.13,1.13,0,0,1,.38.19.54.54,0,0,1,.16.43c-.63,1.83-1.23,3.68-2,5.47a13.59,13.59,0,0,1-1.4,2.2l-.19.23Z"/><path class="cls-1" d="M21.49,18V17c0-.23.08-.31.33-.26a7.43,7.43,0,0,0,3.08,0c.26-.06.35,0,.35.28,0,.62,0,1.23,0,1.84a1.87,1.87,0,0,1-3.74,0c0-.29,0-.58,0-.88Z"/><path class="cls-1" d="M21.66,28.16a10.24,10.24,0,0,1-2.07-3.52c-.48-1.38-.94-2.77-1.41-4.16-.12-.37-.07-.49.29-.66l.22-.11c.36-.16.51-.09.65.27.41,1.14.81,2.27,1.22,3.4.18.5.32.53.7.14.12-.13.24-.25.37-.37a4.54,4.54,0,0,0,.21.88,5.28,5.28,0,0,0,.53.72,1.88,1.88,0,0,0-.69,1.8c0,.42,0,.85,0,1.27C21.68,27.91,21.67,28,21.66,28.16Z"/><path class="cls-1" d="M24.43,27.38c0,.37,0,.75,0,1.12a.58.58,0,0,1-.25.53c-1,.75-.64.75-1.61,0a.79.79,0,0,1-.36-.76c0-.69,0-1.39,0-2.08a1.1,1.1,0,1,1,2.2,0C24.43,26.57,24.42,27,24.43,27.38Z"/><path class="cls-1" d="M28.42,7.86a4.35,4.35,0,0,0-2.21-4A3.09,3.09,0,0,0,27.75,3c.15-.17.33-.12.51,0A2.46,2.46,0,0,1,29.36,5c0,.93,0,1.86,0,2.8,0,.24-.1.32-.33.24Z"/><path class="cls-1" d="M21,22.89c-.36-1-.74-2.05-1.11-3.12-.1-.28,0-.46.32-.52a1.18,1.18,0,0,1,.49-.06c.12,0,.31.1.34.2a2.6,2.6,0,0,0,1.8,1.82Z"/><path class="cls-1" d="M25.61,23l-1.69-1.78.18-.08a2.39,2.39,0,0,0,1.58-1.63.43.43,0,0,1,.54-.34l.3.06c.31.06.45.25.34.53C26.46,20.84,26,21.9,25.61,23Z"/><path class="cls-1" d="M23.38,21.44a5.39,5.39,0,0,1,.93,1,2.22,2.22,0,0,1,.08,1.07.94.94,0,0,1-.49.73,1.08,1.08,0,0,1-1.65-.7,5.78,5.78,0,0,1,0-.93.36.36,0,0,1,.08-.2Z"/><path class="cls-1" d="M35.23,19.3a1,1,0,1,1-2,0,1,1,0,0,1,2,0Z"/><path class="cls-1" d="M40.12,19.3a1,1,0,1,1-2,0,1,1,0,0,1,1-1A1,1,0,0,1,40.12,19.3Z"/><path class="cls-1" d="M35.81,19.54c-.1-.49-.09-.5.38-.5h1.12c.18,0,.29.05.29.26s-.09.28-.28.27H35.93A.53.53,0,0,1,35.81,19.54Z"/></svg>