<svg xmlns="http://www.w3.org/2000/svg" width="26.288" height="26.285" viewBox="0 0 26.288 26.285">
  <g id="Group_271" data-name="Group 271" transform="translate(1878.374 -4714.725)">
    <g id="Group_197" data-name="Group 197" transform="translate(-1079.359 4770.799)">
      <path id="Path_351" data-name="Path 351" d="M-778.452-41.222c0,.047.007.095.007.142q0,4.493,0,8.986a2.277,2.277,0,0,1-1.851,2.259,2.376,2.376,0,0,1-.456.044q-7.976,0-15.951,0a2.285,2.285,0,0,1-2.31-2.317q0-8.92,0-17.84,0-1.889,0-3.778a2.279,2.279,0,0,1,2.342-2.348q5.429,0,10.859,0a.34.34,0,0,1,.226.089q2.482,2.66,4.955,5.329c.037.04.07.082.1.115l-.791.8-3.969-4.232c-.007.086-.014.131-.014.177q0,1.963,0,3.926a1.148,1.148,0,0,0,1.23,1.217h1.667c-.048.059-.072.093-.1.122-.309.311-.615.624-.931.927a.371.371,0,0,1-.227.094,3.024,3.024,0,0,1-1.326-.155,2.155,2.155,0,0,1-1.434-1.985c-.042-1.258-.015-2.518-.017-3.778,0-.444,0-.887,0-1.331,0-.053,0-.107-.008-.174h-10.2a1.141,1.141,0,0,0-1.2.912,1.373,1.373,0,0,0-.023.294q0,7.384,0,14.768,0,3.409,0,6.817a1.132,1.132,0,0,0,.93,1.181,1.476,1.476,0,0,0,.295.019q7.91,0,15.82.006a1.178,1.178,0,0,0,1.212-.937,1.883,1.883,0,0,0,.017-.327q0-3.877,0-7.754a.382.382,0,0,1,.121-.3c.332-.325.655-.659.982-.99Z" transform="translate(0)" fill="#fff"/>
      <path id="Path_352" data-name="Path 352" d="M-486.393,64.165l.8-2.109q.791-2.1,1.584-4.19a.713.713,0,0,1,.157-.243q4.346-4.353,8.7-8.7a2.283,2.283,0,0,1,3.364,0c.255.256.515.507.764.769a2.277,2.277,0,0,1-.044,3.234q-4.351,4.349-8.7,8.7a.864.864,0,0,1-.293.2q-3.057,1.146-6.119,2.282C-486.243,64.12-486.3,64.136-486.393,64.165Zm6.864-4.469,5.991-5.991-2.377-2.378-5.993,5.99Zm-4.9,2.5c.069-.019.1-.025.129-.036,1.219-.454,2.439-.906,3.654-1.368a1.264,1.264,0,0,0,.293-.216l-2.445-2.452a2.492,2.492,0,0,0-.239.39c-.28.718-.547,1.441-.819,2.162Zm11.788-9.323c.3-.32.643-.627.922-.98a1.083,1.083,0,0,0-.081-1.378c-.295-.323-.606-.632-.927-.928a1.056,1.056,0,0,0-1.322-.1,13.6,13.6,0,0,0-1.032.945Z" transform="translate(-302.35 -100.829)" fill="#fff"/>
      <path id="Path_353" data-name="Path 353" d="M-670.016,413.666c-.14.372-.267.721-.407,1.064-.016.039-.106.066-.161.066q-1.88.006-3.76,0h-2.568v-1.135Z" transform="translate(-118.091 -454.306)" fill="#fff"/>
      <path id="Path_354" data-name="Path 354" d="M-677.026,310.578v-1.119h5.692v1.119Z" transform="translate(-117.981 -353.523)" fill="#fff"/>
      <path id="Path_355" data-name="Path 355" d="M-676.979,206.263v-1.125h5.7c0,.356,0,.705-.005,1.054,0,.027-.072.072-.112.075-.131.01-.263,0-.394,0H-676.8C-676.853,206.27-676.906,206.266-676.979,206.263Z" transform="translate(-118.026 -252.63)" fill="#fff"/>
      <path id="Path_356" data-name="Path 356" d="M-671.276,518.128c-.141.371-.272.728-.417,1.08-.015.035-.11.052-.169.053q-1.551,0-3.1,0h-1.912v-1.134Z" transform="translate(-118.127 -555.336)" fill="#fff"/>
      <path id="Path_357" data-name="Path 357" d="M-460.664,518.9l1.241-.463c.528-.2,1.055-.395,1.585-.587a.869.869,0,0,1,.286-.052c.734,0,1.467,0,2.2,0,.038,0,.075,0,.125.006v1.125h-5.429Z" transform="translate(-327.234 -555.017)" fill="#fff"/>
    </g>
  </g>
</svg>
