<svg xmlns="http://www.w3.org/2000/svg" width="29.709" height="28.121" viewBox="0 0 29.709 28.121">
  <g id="Group_270" data-name="Group 270" transform="translate(1560.368 -4714.725)">
    <g id="Group_198" data-name="Group 198" transform="translate(-1059.199 4447.834)">
      <path id="Path_358" data-name="Path 358" d="M-492.447,337.023c-1.206-.372-1.442-1.283-1.4-2.4.043-1.278-.014-2.559.023-3.837a.816.816,0,0,0-.684-.975c-1.618-.459-3.216-.987-4.825-1.479a2.247,2.247,0,0,1-1.812-2.367q-.037-3.765,0-7.531a2.208,2.208,0,0,1,1.7-2.3,2.357,2.357,0,0,1,2.812,1.03,4.23,4.23,0,0,1,.4,1.8c.043,2.411.018,4.824.018,7.273,1.276.416,2.527.822,3.777,1.23,1.2.393,1.477.769,1.482,2.059.007,1.714-.031,3.429.014,5.142.029,1.093-.177,1.985-1.349,2.36Z" transform="translate(0 -42.012)" fill="#fff"/>
      <path id="Path_359" data-name="Path 359" d="M-407.894,266.89A2.578,2.578,0,0,1-406.134,268a2.218,2.218,0,0,1-.276,2.552,2.253,2.253,0,0,1-2.461.473,2.167,2.167,0,0,1-1.2-2.2,2.065,2.065,0,0,1,1.7-1.806,2.012,2.012,0,0,0,.331-.131Z" transform="translate(-77.885)" fill="#fff"/>
      <path id="Path_360" data-name="Path 360" d="M-440.4,310.2h4.277v2.236H-452.7v-2.209h4.6c0-1.223-.023-2.373.007-3.52a23.754,23.754,0,0,1,.2-3.087,2.194,2.194,0,0,1,2.305-1.666,23.817,23.817,0,0,0,2.435.022,2.357,2.357,0,0,1,2.744,2.5c.032,1.567.013,3.136.016,4.7C-440.4,309.487-440.4,309.8-440.4,310.2Z" transform="translate(-41.441 -29.98)" fill="#fff"/>
      <path id="Path_361" data-name="Path 361" d="M-354.354,322.181c0,1.35.038,2.7-.012,4.05a2.024,2.024,0,0,1-1.759,2.051c-1.536.379-3.028.938-4.549,1.386a.7.7,0,0,0-.573.821c.029,1.5.074,3-.018,4.488a2.147,2.147,0,0,1-.706,1.514,1.356,1.356,0,0,1-2.135-1.252c-.043-2.1-.027-4.2,0-6.3a1.6,1.6,0,0,1,1.248-1.58c1.029-.332,2.048-.7,3.089-.99.468-.13.584-.352.581-.806q-.03-3.585,0-7.17a2.233,2.233,0,0,1,1.223-2.2,2.561,2.561,0,0,1,2.672.165,2.521,2.521,0,0,1,1,2.277c.032,1.182.008,2.366.008,3.548Z" transform="translate(-117.173 -41.898)" fill="#fff"/>
      <path id="Path_362" data-name="Path 362" d="M-415.213,384.325c0,.964.027,1.929-.006,2.892-.043,1.258-1.04,1.948-2.082,1.345a1.944,1.944,0,0,1-.772-1.4c-.088-1.924-.062-3.854-.027-5.782.024-1.3,1.07-2.039,2.109-1.429a2.073,2.073,0,0,1,.744,1.413A25.37,25.37,0,0,1-415.213,384.325Z" transform="translate(-71 -96.488)" fill="#fff"/>
      <path id="Path_363" data-name="Path 363" d="M-394.123,384.282c0-.988-.025-1.976.006-2.963.04-1.267,1.039-1.974,2.083-1.377a1.938,1.938,0,0,1,.775,1.4c.087,1.947.065,3.9.022,5.852a1.428,1.428,0,0,1-2.1,1.4c-.652-.286-.737-.917-.772-1.5-.056-.936-.015-1.878-.015-2.817Z" transform="translate(-91.514 -96.481)" fill="#fff"/>
      <path id="Path_364" data-name="Path 364" d="M-323.794,280.681a2.132,2.132,0,0,1-2.165,2.054,2.185,2.185,0,0,1-2.075-2.23,2.154,2.154,0,0,1,2.182-2.041A2.093,2.093,0,0,1-323.794,280.681Z" transform="translate(-148.036 -9.895)" fill="#fff"/>
      <path id="Path_365" data-name="Path 365" d="M-494.724,280.573a2.143,2.143,0,0,1-2.093,2.13,2.2,2.2,0,0,1-2.163-2.149,2.166,2.166,0,0,1,2.185-2.123A2.1,2.1,0,0,1-494.724,280.573Z" transform="translate(-1.871 -9.868)" fill="#fff"/>
    </g>
  </g>
</svg>
