<svg xmlns="http://www.w3.org/2000/svg" width="34.602" height="34.779" viewBox="0 0 34.602 34.779">
  <g id="Group_272" data-name="Group 272" transform="translate(2182 -4296.43)">
    <g id="Group_189" data-name="Group 189" transform="translate(-1545.607 4382.709)">
      <path id="Path_301" data-name="Path 301" d="M-482.433-74.341l10.01-11.939,8.384,7.039-13.431,16.013-7.13-5.98.014-.044,1.457.463c.749.237,1.5.484,2.249.709a2.352,2.352,0,0,0,2.851-1.382,2.374,2.374,0,0,0-1.056-2.994c-1.023-.566-2.042-1.14-3.062-1.711C-482.233-74.214-482.314-74.268-482.433-74.341Zm7.251-3.928a3.289,3.289,0,0,0-3.326,3.159,3.834,3.834,0,0,0,3.726,3.876,3.276,3.276,0,0,0,3.388-3.193A3.816,3.816,0,0,0-475.182-78.269Z" transform="translate(-141.807)" fill="#fff"/>
      <path id="Path_302" data-name="Path 302" d="M-479.887,274.382c-2.05.188-4.044.369-6.037.553-.555.051-1.109.119-1.665.157a.408.408,0,0,1-.314-.146,2.633,2.633,0,0,0-2.363-1.168c-1.666,0-3.332,0-5,0a13.9,13.9,0,0,1-1.671-.068,6.235,6.235,0,0,1-3.214-1.534c-1.1-.919-2.148-1.9-3.221-2.848-.336-.3-.687-.577-1.019-.878a1.48,1.48,0,0,1-.175-2.066,1.5,1.5,0,0,1,2.011-.251q2.031,1.391,4.055,2.791a4.348,4.348,0,0,0,2.456.808c1.807.022,3.615.008,5.423.005.349,0,.578-.187.576-.444s-.211-.441-.578-.443c-1.1-.005-2.192.006-3.288-.005a1.4,1.4,0,0,1-1.3-1.933,1.291,1.291,0,0,1,1.262-.836c2.346-.017,4.692-.033,7.037,0a5.057,5.057,0,0,1,3.206.977,6.215,6.215,0,0,1,1.755,2.343c.578,1.283,1.1,2.592,1.639,3.892C-480.168,273.635-480.038,273.992-479.887,274.382Z" transform="translate(-122.84 -328.967)" fill="#fff"/>
      <path id="Path_303" data-name="Path 303" d="M-587.113,9.544V2.59a45.9,45.9,0,0,0,5.764-1.5,6.887,6.887,0,0,1,2.9-.01c1.119.189,2.235.39,3.352.587a1.131,1.131,0,0,1,.16.06l-1.332,1.586c-.625.746-1.243,1.5-1.882,2.233a.729.729,0,0,1-.438.2c-.281.032-.569,0-.853.012a.826.826,0,0,0-.835.607.818.818,0,0,0,.431.966c1.159.657,2.322,1.306,3.484,1.958.343.192.689.378,1.03.575a1.439,1.439,0,0,1,.623,1.814,1.4,1.4,0,0,1-1.755.75c-1.58-.5-3.155-1.022-4.74-1.508a4.558,4.558,0,0,1-2.22-1.5,1.286,1.286,0,0,0-1.51-.461C-585.644,9.185-586.369,9.349-587.113,9.544Z" transform="translate(-46.038 -81.477)" fill="#fff"/>
      <path id="Path_304" data-name="Path 304" d="M-243.076,410.011v2.133h-9.345V410.88Z" transform="translate(-358.715 -463.645)" fill="#fff"/>
      <path id="Path_305" data-name="Path 305" d="M-636.393,12.477h2.145V21.8h-1.28Z" transform="translate(0 -92.261)" fill="#fff"/>
      <path id="Path_306" data-name="Path 306" d="M-370.072,58.778l-.446-.354c-.267.178-.517.35-.772.514a.22.22,0,0,1-.352-.088c-.137-.221-.3-.426-.426-.6a11.158,11.158,0,0,0,.937-.717.54.54,0,0,0,.148-.474c-.115-.223-.342-.1-.519-.015a9.164,9.164,0,0,1-.882.426,1.162,1.162,0,0,1-1.529-1.326c.1-.521.1-.521-.307-.887l.541-.669.422.323.811-.546.577.806c-.23.161-.449.3-.648.462a1.22,1.22,0,0,0-.289.351.3.3,0,0,0,.024.26c.027.042.162.054.225.025.278-.125.546-.272.821-.405a1.257,1.257,0,0,1,1.606.275A1.12,1.12,0,0,1-369.9,57.3a.511.511,0,0,0,.246.694c.045.031.094.057.159.1Z" transform="translate(-244.927 -131.391)" fill="#fff"/>
    </g>
  </g>
</svg>
