<svg xmlns="http://www.w3.org/2000/svg" width="28.595" height="25.29" viewBox="0 0 28.595 25.29">
  <g id="Group_279" data-name="Group 279" transform="translate(2185.602 -4090.384)">
    <g id="Group_185" data-name="Group 185" transform="translate(-2185.602 4090.384)">
      <path id="Path_286" data-name="Path 286" d="M-743.658-123.164h-1.233c0-.077-.011-.155-.011-.234q0-6.265,0-12.53a1.678,1.678,0,0,1,1.746-1.75h2.443c.005-.094.013-.173.013-.252,0-.463,0-.927,0-1.39a2.875,2.875,0,0,1,2.893-2.882q1.4,0,2.8,0a2.867,2.867,0,0,1,2.882,2.754c.022.5.007,1,.009,1.5,0,.08,0,.161,0,.255h3.136c0-.515-.013-1.02.005-1.525a3.974,3.974,0,0,1,.116-.883,2.859,2.859,0,0,1,2.747-2.1q1.435-.006,2.869,0a2.883,2.883,0,0,1,2.858,2.852c0,.545,0,1.09,0,1.671h.248c.71,0,1.42,0,2.129,0a1.667,1.667,0,0,1,1.693,1.665q.009,6.355,0,12.709c0,.037-.005.074-.009.132h-1.235v-.273q0-6.13,0-12.261c0-.5-.131-.633-.637-.633h-13.923v.26c0,.784-.029,1.57.007,2.353a1.728,1.728,0,0,1-1.37,1.943v.239q0,3.329,0,6.657a1.61,1.61,0,0,1-1.728,1.737c-.829,0-1.659,0-2.488,0a1.606,1.606,0,0,1-1.651-1.659q0-3.362,0-6.724v-.252c-.1-.033-.191-.061-.281-.094a1.592,1.592,0,0,1-1.074-1.5c-.006-.9,0-1.793,0-2.69,0-.08,0-.16,0-.269h-2.393c-.409,0-.565.158-.565.571q0,6.153,0,12.305Z" transform="translate(744.903 148.438)" fill="#fff"/>
      <path id="Path_287" data-name="Path 287" d="M-353.062-278.332a2.915,2.915,0,0,1-2.913,2.922,2.934,2.934,0,0,1-2.916-2.905,2.914,2.914,0,0,1,2.912-2.922A2.89,2.89,0,0,1-353.062-278.332Z" transform="translate(376.197 281.238)" fill="#fff"/>
      <path id="Path_288" data-name="Path 288" d="M-620.372-278.343a2.894,2.894,0,0,1,2.957-2.891,2.912,2.912,0,0,1,2.873,2.937,2.932,2.932,0,0,1-2.953,2.891A2.917,2.917,0,0,1-620.372-278.343Z" transform="translate(625.955 281.234)" fill="#fff"/>
    </g>
  </g>
</svg>
