<svg id="Layer_1" data-name="Layer 1" xmlns="http://www.w3.org/2000/svg" viewBox="0 0 49 34"><defs><style>.cls-1{fill:#fff;}</style></defs><title>Account Receive</title><path class="cls-1" d="M35.91,8.26c-.91,0-1.8,0-2.7,0a1.31,1.31,0,0,0-.75.18c-.76.69-1.47,1.42-2.38,2.32h3.41a16.85,16.85,0,0,1,1.88,0,2.62,2.62,0,0,0,2.37-.91,2.77,2.77,0,0,1,1.51-.6,10.88,10.88,0,0,1,1.81,0v1.07a10.92,10.92,0,0,0-1.62,0,6.56,6.56,0,0,0-1.24.42,21.28,21.28,0,0,1,.31,2.49c0,3.41,0,6.81,0,10.22a2.76,2.76,0,0,1-1.8,2.8C33,28,29.24,29.74,25.5,31.49a7.69,7.69,0,0,1-5.63.48c-.36-.11-.74-.19-1.1-.32A16.55,16.55,0,0,0,12,30.74c-.51,0-1,0-1.58,0V29.56c2,.14,4.11.18,6.13.44a29.56,29.56,0,0,1,3.77,1,6.36,6.36,0,0,0,4.46-.36Q30.64,28,36.43,25.26c1-.44,1.28-1.16.94-2s-1.07-1.06-2.06-.69c-3.54,1.33-7.07,2.65-10.59,4a2.78,2.78,0,0,1-3-.4l-.07,0A5.27,5.27,0,0,0,17,24.6a1,1,0,0,1-.24,0,1,1,0,0,1-.18-.09v-.95h1.74c1.66,0,3.32,0,5,0a1.27,1.27,0,0,0,1.4-1.27A1.32,1.32,0,0,0,23.28,21c-1.79,0-3.6-.07-5.39,0a2.75,2.75,0,0,0-1.81.75c-1.51,1.8-3.43,2-5.61,1.73v-1H13v-1c0-3,0-5.93,0-8.9,0-1.34.54-1.88,1.88-1.89s2.56,0,3.84,0a1.92,1.92,0,0,0,1.19-.49c2.49-2.43,5-4.9,7.41-7.38a4.12,4.12,0,0,1,3.14-1.29c3.24,0,6.48,0,9.72,0H41V2.67h-.89c-3.22,0-6.43,0-9.64,0A3.28,3.28,0,0,0,28,3.7c-2.27,2.31-4.57,4.59-7,7h3.78v1.12H15.09c-1,0-1.09.05-1.09,1v9.29L16.61,20l-1.55-.63V14.45c1.37-.29,1.37-.29,1.57-1.57h3.5l0,.88a10.53,10.53,0,0,0-2.63.32,2.57,2.57,0,0,0-1.38,1.44,10.39,10.39,0,0,0-.07,2.68.56.56,0,0,0,.09.3A19.53,19.53,0,0,0,17.75,20c.14.12.46,0,.71,0l-.12-.24c.36-.23.71-.49,1.09-.69a4.16,4.16,0,0,1,.63-.17.86.86,0,0,0,.5-1.23c-.23-.43-.49-.84-.85-1.44.52-.46,1-.94,1.6-1.37a.74.74,0,0,1,.62-.08,3.36,3.36,0,0,1,.7.41c.81.49,1.3.29,1.53-.61l.33-1.18h2.45c.52.58.07,1.58,1,2s1.24-.63,2-.69l.19-.23c.49.57,1,1.13,1.45,1.73a.69.69,0,0,1,0,.56,6,6,0,0,1-.45.77c-.41.71-.17,1.2.63,1.45.55.17,1.43,0,1.3,1.08.36,0,.75.05.91-.11.56-.54,1.44-1.15,1.46-1.75,0-1.06.49-2.16-.64-3.32s-2.13-.81-3.3-1V12.9h3.47c.24,1.29.24,1.29,1.6,1.54v5c-1-.1-1.65.3-1.51,1.49H33c.11.84-.44.94-1,1s-1.15.24-1.11,1.14l2.24-.83a11.24,11.24,0,0,1,1.91-.7,19.67,19.67,0,0,1,2.49-.16c0-2.84,0-5.89,0-8.93,0-.47-.23-.69-.71-.68H29.11a3.63,3.63,0,0,0-.71.16A2.31,2.31,0,0,1,25.8,11a2.22,2.22,0,0,1,.33-2.78C27.37,6.89,28.66,5.63,30,4.29l.61.88c-1.09,1.08-2.27,2.25-3.43,3.42a2.38,2.38,0,0,0-.57.78,1.26,1.26,0,0,0,2.09,1.31c1-1,1.95-2,3-2.93a2.17,2.17,0,0,1,1.19-.51c.75-.08,1.53,0,2.29,0S36.18,7.39,35.91,8.26ZM20.8,20c.4,0,1.05,0,1.69,0a.86.86,0,0,0,1-.6A2.45,2.45,0,0,1,26.29,18a2.6,2.6,0,0,1,2.05,2.52A2.66,2.66,0,0,1,26.26,23a1.92,1.92,0,0,0-.88.58,2.51,2.51,0,0,1-2,1c-.61,0-1.21,0-2,0,1,.71,1.65,1.53,2.78,1.11,1.86-.69,3.7-1.4,5.53-2.1.13-1.41.45-2.62,2.15-2.63v-.92c-.75-.25-1.5-.28-1.89-1.27s.08-1.57.48-2.27l-.57-.66c-.79.34-1.32.95-2.31.51a2.24,2.24,0,0,1-1.29-1.88c-.65-.2-1-.05-1.11.59a1.79,1.79,0,0,1-2.7,1.15c-.58-.38-.93-.31-1.11.06a6.37,6.37,0,0,1,.37,2.05A5.65,5.65,0,0,1,20.8,20ZM26,22a1.39,1.39,0,0,0,1.24-1.48A1.44,1.44,0,0,0,26.07,19a1.36,1.36,0,0,0-1.67.9Z"/></svg>