<svg xmlns="http://www.w3.org/2000/svg" width="32.736" height="21.852" viewBox="0 0 32.736 21.852">
  <g id="Group_268" data-name="Group 268" transform="translate(1562.368 -4511.558)">
    <g id="Group_195" data-name="Group 195" transform="translate(-1051.368 4411.247)">
      <path id="Path_341" data-name="Path 341" d="M-511,105.2v-.582a1.424,1.424,0,0,1,1.376-.592c.432.041.872.008,1.308.008q5.926,0,11.852,0c.828,0,1.354-.54,1.141-1.179-.191-.571-.646-.707-1.209-.705-3.369.012-6.738.006-10.107,0-.218,0-.512.074-.638-.037-.279-.245-.632-.575-.655-.892-.019-.266.347-.612.619-.826.158-.124.467-.075.708-.075q9.525,0,19.05,0c1.105,0,1.305.275,1.084,1.373-.228,1.132-.43,2.269-.659,3.489,1.222,0,2.381.018,3.539-.008a1.035,1.035,0,0,1,1.042.61c.765,1.4,1.559,2.783,2.342,4.173.356.632.573,1.41,1.542,1.371.13-.005.267.176.4.271v.727c-.145.639-.26,1.288-.444,1.916a1.358,1.358,0,0,0,.444,1.721v.291a3.872,3.872,0,0,0-.142.479c-.292,1.767-.328,1.821-2.089,1.853-.451.008-.545.245-.682.572a4.664,4.664,0,0,1-3.108,2.828,3.046,3.046,0,0,1-4.18-3c0-.113-.027-.225-.048-.387-3,0-5.95-.008-8.9.021-.17,0-.408.274-.494.472a4.819,4.819,0,0,1-3.149,2.893,3.064,3.064,0,0,1-4.2-2.7c-.017-.21-.024-.421-.039-.691-.355,0-.665,0-.975,0-.926-.008-1.128-.231-.965-1.128.476-2.611.964-5.22,1.456-7.876-.25-.012-.463-.03-.676-.031-.752,0-1.5.007-2.255-.005a.806.806,0,0,1-.874-.86.805.805,0,0,1,.812-.919c.241-.022.484-.021.726-.022q5.637,0,11.273,0c.288,0,.659.05.844-.1.28-.229.613-.634.584-.931s-.446-.6-.755-.8c-.171-.113-.472-.035-.714-.035-4.291,0-8.582-.009-12.873.009A1.308,1.308,0,0,1-511,105.2Zm29.353,6c-.819-1.456-1.552-2.781-2.318-4.086a.736.736,0,0,0-.544-.235c-.822-.025-1.645-.031-2.466,0-.186.008-.494.18-.524.323-.276,1.309-.5,2.627-.752,3.993ZM-501.1,116.4a2.557,2.557,0,0,0-2.456,2.4,1.7,1.7,0,0,0,1.675,1.669,2.65,2.65,0,0,0,2.492-2.388A1.645,1.645,0,0,0-501.1,116.4Zm14.362,2.326a1.643,1.643,0,0,0,1.642,1.741,2.6,2.6,0,0,0,2.463-2.318,1.611,1.611,0,0,0-1.615-1.75A2.486,2.486,0,0,0-486.735,118.724Z" transform="translate(0 0)" fill="#fff"/>
    </g>
  </g>
</svg>
