<svg xmlns="http://www.w3.org/2000/svg" width="27.023" height="31" viewBox="0 0 27.023 31">
  <g id="Group_277" data-name="Group 277" transform="translate(1559.511 -4088.826)">
    <g id="Group_187" data-name="Group 187" transform="translate(-1067.368 4027.985)">
      <path id="Path_292" data-name="Path 292" d="M-482.969,200.968a20.784,20.784,0,0,0,3.03,5.689,4.8,4.8,0,0,0-.818-4.879h4.09c-.024.125,0,.4-.117.54-1.1,1.309-.966,2.782-.58,4.383a20.043,20.043,0,0,0,3.1-5.793c1.268.418,2.5.88,3.766,1.231a8.279,8.279,0,0,1,5.257,4.54.7.7,0,0,1-.216.984,13.428,13.428,0,0,1-6.014,3.024,27.263,27.263,0,0,1-17.183-1.086,21.763,21.763,0,0,1-3.178-1.982c-.373-.239-.384-.523-.184-.92a8.169,8.169,0,0,1,5.67-4.649C-485.229,201.793-484.156,201.354-482.969,200.968Z" transform="translate(0 -119.733)" fill="#fff"/>
      <path id="Path_293" data-name="Path 293" d="M-459.595,67.163l-2.849.328.373,1.757a24.616,24.616,0,0,0-11.317.013c.28-1.2.49-2.332.813-3.43.335-1.137,1.361-1.354,2.354-1.488a15.747,15.747,0,0,1,6.169.251l.042-.2a11.23,11.23,0,0,0-2.086-.426,42.82,42.82,0,0,0-4.834.133,2.5,2.5,0,0,0-2.312,2.161,5.753,5.753,0,0,1-.188.567l-5.962-3.875.055-.207c.987-.147,1.973-.3,2.961-.441,3.414-.477,6.83-.944,10.244-1.424a2.556,2.556,0,0,1,1.98.415c1.352.97,2.763,1.859,4.121,2.821a1.2,1.2,0,0,1,.419.8C-459.556,65.633-459.595,66.36-459.595,67.163Z" transform="translate(-10.899)" fill="#fff"/>
      <path id="Path_294" data-name="Path 294" d="M-435.634,117.109c1.615.218,3.307.463,5,.666.459.055.6.264.654.687.064.541.206,1.071.3,1.609a5.171,5.171,0,0,1-.987,4.625,2.251,2.251,0,0,0-.268.581,6.016,6.016,0,0,1-4.352,3.864,3.749,3.749,0,0,1-2.2-.406,6.577,6.577,0,0,1-3.189-3.6c-.135-.343-.445-.612-.616-.946a5.611,5.611,0,0,1-.434-4.474,1.79,1.79,0,0,0,.151-.759c-.118-.819.22-1.185,1.024-1.268C-438.947,117.519-437.345,117.312-435.634,117.109Zm3.869,3.5c-.079-.644-.138-1.186-.213-1.726s-.294-.741-.891-.538a14.153,14.153,0,0,1-2.45.61c-1.415.213-2.843.336-4.336.505-.023.287-.055.692-.1,1.222-.2-.181-.268-.244-.337-.306l-.6-.535c-.137.239-.381.473-.393.719-.062,1.267-.218,2.576.956,3.522.11.088.125.3.177.452a5.732,5.732,0,0,0,3.063,3.575,2.51,2.51,0,0,0,2.359-.05,5.934,5.934,0,0,0,2.932-3.524c.052-.155.064-.37.173-.453,1.162-.884,1.013-2.157.988-3.372-.006-.292-.265-.579-.407-.869-.219.192-.437.386-.658.576C-431.55,120.461-431.611,120.5-431.765,120.605Z" transform="translate(-42.857 -48.1)" fill="#fff"/>
      <path id="Path_295" data-name="Path 295" d="M-344.1,86.581c.224,2,.428,3.9.654,5.8.112.94-.115,1.16-1.06,1.037-.459-.06-.559-.291-.495-.69a46.671,46.671,0,0,0,.562-8.708,3.466,3.466,0,0,1,.044-.416c.151.062.371.12.368.156-.064.655.453.833.866,1.1a9.05,9.05,0,0,1,1.71,1.349Z" transform="translate(-125.771 -19.46)" fill="#fff"/>
    </g>
  </g>
</svg>
