<svg xmlns="http://www.w3.org/2000/svg" width="34.426" height="26.245" viewBox="0 0 34.426 26.245">
  <g id="Group_267" data-name="Group 267" transform="translate(1882.443 -4507.165)">
    <g id="Group_194" data-name="Group 194" transform="translate(-1423.443 4401.912)">
      <path id="Path_338" data-name="Path 338" d="M-450.767,122.464c0,3.759-.023,7.518.018,11.276.009.822-.246,1.207-1.065,1.2-2.06-.007-4.121-.019-6.181-.01-.787,0-1.008-.359-1.005-1.124q.036-11.458,0-22.916c0-.8.3-1.085,1.052-1.081,2.021.013,4.042.02,6.062-.006.9-.012,1.147.389,1.137,1.259C-450.791,114.866-450.767,118.665-450.767,122.464Zm-3.983-9.239c-.806,0-1.615-.043-2.415.025-.261.022-.5.334-.746.513.238.148.473.419.714.425q2.477.057,4.955,0c.232-.006.458-.293.686-.45-.218-.17-.427-.472-.657-.488C-453.055,113.19-453.9,113.226-454.749,113.225Zm.037,3.948c.843,0,1.687.027,2.528-.019.214-.011.416-.251.623-.386-.2-.187-.4-.53-.609-.536q-2.527-.068-5.056-.006c-.23.005-.454.3-.681.468.222.161.436.444.668.46C-456.4,117.21-455.556,117.176-454.713,117.173Zm-.041,13.991c-.845,0-1.694-.035-2.535.024-.218.016-.415.329-.621.506.2.149.394.424.6.428,1.69.035,3.382.04,5.072,0,.231-.005.455-.306.682-.47-.219-.164-.43-.454-.659-.469C-453.06,131.127-453.908,131.161-454.754,131.164Z" transform="translate(0 -3.449)" fill="#fff"/>
      <path id="Path_339" data-name="Path 339" d="M-378.186,105.253a3.14,3.14,0,0,1,.535.7q4.479,10.722,8.9,21.47a1.21,1.21,0,0,1-.4,1.112c-1.98.9-4,1.716-6.018,2.544-.6.248-.951.006-1.2-.6-2.938-7.125-5.9-14.24-8.823-21.372-.121-.294.016-.985.22-1.076,2.095-.942,4.227-1.8,6.35-2.678A4.016,4.016,0,0,1-378.186,105.253Zm-4.981,5.641-.092.378c.3.114.671.4.9.314,1.611-.611,3.2-1.285,4.778-1.979.178-.078.248-.4.368-.613-.252-.087-.558-.313-.747-.239C-379.709,109.439-381.435,110.174-383.167,110.894Zm7.128,1.314.111-.409c-.3-.1-.669-.368-.9-.28-1.758.679-3.489,1.426-5.228,2.152l-.047.42c.317.089.7.337.94.242C-379.438,113.665-377.743,112.925-376.039,112.208Zm.268,16.093c1.8-.758,3.509-1.47,5.205-2.22a.614.614,0,0,0,.163-.576.6.6,0,0,0-.527-.266q-2.531,1-5.029,2.082a.64.64,0,0,0-.243.559C-376.169,128.046-375.917,128.169-375.772,128.3Z" transform="translate(-55.851 0)" fill="#fff"/>
      <path id="Path_340" data-name="Path 340" d="M-421.312,122.446c0-3.8.02-7.6-.015-11.4-.008-.853.208-1.274,1.137-1.257,1.981.037,3.963.027,5.944,0,.823-.009,1.128.314,1.125,1.155q-.036,11.463,0,22.926c0,.736-.255,1.039-.958,1.039-2.061,0-4.123,0-6.184.019-.834.006-1.072-.388-1.064-1.2C-421.291,129.968-421.313,126.207-421.312,122.446Zm4.083-8.259c.884,0,1.769.032,2.649-.023.222-.014.426-.307.638-.472-.22-.161-.438-.456-.662-.461-1.686-.038-3.373-.034-5.059,0-.2,0-.391.276-.587.423.2.177.4.491.612.508C-418.838,114.225-418.032,114.188-417.229,114.188Zm3.389,17.321-.209-.358c-1.853,0-3.707-.017-5.559.022-.216,0-.425.315-.638.484.233.157.462.444.7.449,1.658.039,3.319.045,4.976-.009C-414.321,132.088-414.083,131.714-413.84,131.508Zm-.27-14.347.283-.41c-.269-.188-.533-.531-.807-.539-1.655-.049-3.312-.041-4.968,0-.219.006-.43.324-.644.5.232.15.462.425.7.429C-417.736,117.177-415.922,117.161-414.11,117.161Z" transform="translate(-28.521 -3.432)" fill="#fff"/>
    </g>
  </g>
</svg>
